<?xml version="1.0" encoding="UTF-8"?>
<svg width="194px" height="40px" viewBox="0 0 194 40" version="1.1" xmlns="http://www.w3.org/2000/svg" xmlns:xlink="http://www.w3.org/1999/xlink">
    <title>LOGO</title>
    <g id="页面-1" stroke="none" stroke-width="1" fill="none" fill-rule="evenodd">
        <g id="8.0切图" transform="translate(-410.000000, -99.000000)" fill="#5A00FF">
            <path d="M487.903935,99 L487.903935,139 L480.81372,139 L480.81372,106.905605 L465.671317,114.163491 L465.671317,106.311264 L480.925643,99 L487.903935,99 Z M532.94643,129 L539.308231,135.786529 L539.308231,129 L541.468459,129 L541.468459,139 L539.362592,139 L532.936777,132.145051 L532.936777,138.895596 L530.776549,138.895596 L530.776549,129 L532.94643,129 Z M597.979101,129 L604,139 L601.479819,139 L596.785692,131.202879 L592.949153,139 L590.542521,139 L595.462984,129 L597.979101,129 Z M587.947148,129 L587.947148,131.097461 L581.990263,131.097461 C580.420897,131.097461 579.14366,132.371091 579.14366,133.936901 C579.14366,135.502711 580.420897,136.776595 581.990263,136.776595 L587.947148,136.776595 L587.947148,138.93158 L581.990263,138.93158 C579.22952,138.93158 576.983432,136.690943 576.983432,133.936901 C576.983432,131.427145 578.851277,129.34945 581.271881,129 L587.947148,129 Z M558.236137,129 C559.762827,129.209569 560.939725,130.437839 560.939725,131.921291 C560.939725,132.659723 560.64658,133.334296 560.165711,133.85277 C560.648358,134.390249 560.939725,135.0818 560.939725,135.835943 C560.939725,137.542142 559.452155,138.929806 557.623429,138.929806 L549.004871,138.929806 L549.004871,136.774821 L557.623429,136.774821 C558.260778,136.774821 558.779496,136.353657 558.779496,135.835943 C558.779496,135.317977 558.260778,134.896812 557.623429,134.896812 L549.004871,134.896812 L549.004871,132.722822 L557.77559,132.722822 C558.319965,132.722822 558.779496,132.355887 558.779496,131.921291 C558.779496,131.486949 558.319965,131.120014 557.77559,131.120014 L549.004871,131.120014 L549.004871,129 Z M525.060226,129 C526.648898,129.206274 527.881173,130.562009 527.881173,132.202068 L527.881173,135.686939 C527.881173,137.469414 526.427388,138.919416 524.640831,138.919416 L520.206826,138.919416 C518.420014,138.919416 516.966484,137.469414 516.966484,135.686939 L516.966484,132.202068 C516.966484,130.562009 518.198504,129.206274 519.78743,129 Z M503.417047,129 L507.445121,134.93381 L511.127466,129 L513.508442,129 L513.592016,138.88622 L511.431788,138.904718 L511.379205,132.688358 L507.526663,138.896609 L503.189695,132.508438 L503.243802,138.88622 L501.083574,138.904718 L501,129 L503.417047,129 Z M546.368092,129 L546.367838,138.895596 L544.20761,138.895596 L544.207864,129 L546.368092,129 Z M463.172079,99 L463.172079,138.871393 L456.082489,138.871393 L456.082,121.696 L456,121.696072 L456,110.946747 L456.082,110.907 L456.082489,106.079022 L425.282646,106.079022 C420.757573,106.079022 417.089277,109.747318 417.089277,114.272391 L417.089277,138.875867 L410,138.875867 L410,111.290054 C410,104.502445 415.502445,99 422.290054,99 L463.172079,99 Z M565.459082,129 L565.459082,135.602808 C565.459082,136.19705 565.943762,136.6803 566.539196,136.6803 L572.102342,136.6803 C572.697777,136.6803 573.182456,136.19705 573.182456,135.602808 L573.182456,129 L575.342685,129 L575.342685,135.602808 C575.342685,137.385282 573.8889,138.835285 572.102342,138.835285 L566.539196,138.835285 C564.752639,138.835285 563.298854,137.385282 563.298854,135.602808 L563.298854,129 L565.459082,129 Z M524.640831,131.124829 L520.206826,131.124829 C519.611137,131.124829 519.126712,131.608079 519.126712,132.202068 L519.126712,135.686939 C519.126712,136.281182 519.611137,136.764432 520.206826,136.764432 L524.640831,136.764432 C525.236265,136.764432 525.720945,136.281182 525.720945,135.686939 L525.720945,132.202068 C525.720945,131.608079 525.236265,131.124829 524.640831,131.124829 Z M534.734787,101.666667 L534.734787,105.063597 L542.409866,105.063597 L542.409866,107.433485 L534.734787,107.433485 L534.734787,110.130045 L546.480519,110.130045 L546.480519,112.499933 L534.734787,112.499933 L534.734787,125 L532.321262,125 L532.321262,112.499933 L525.077922,112.499933 L525.077922,110.130045 L532.321262,110.130045 L532.321262,101.666667 L534.734787,101.666667 Z M571.148731,101.666667 L571.148731,114.700485 L574.571429,114.700485 L574.571429,117.139821 L571.148731,117.139821 L571.148731,125 L568.702992,125 L568.702992,117.139821 L561.863636,117.139821 L561.863636,114.700485 L568.702992,114.700485 L568.702992,101.666667 L571.148731,101.666667 Z M561.181131,101 C560.203182,102.175517 559.032246,103.197148 557.716404,104.025314 L557.716404,108.741698 L561.194805,108.741698 L561.194805,111.12873 L558.110098,111.12873 L560.15113,113.218515 L560.15113,116.719383 L557.716404,114.226251 L557.716404,125 L555.215731,125 L555.215731,115.903005 L551.162338,123.042208 L551.162338,118.032367 L555.081853,111.12873 L551.290261,111.12873 L551.290261,108.741698 L555.215731,108.741698 L555.215731,105.288406 C554.314315,105.642914 553.369891,105.917846 552.389516,106.096784 L552.389516,103.656913 C554.415992,103.206831 556.251245,102.277827 557.756104,101 Z M520.798818,101.666667 L520.798818,104.111199 L512.417617,104.111199 C512.33516,105.770351 511.970487,107.356204 511.370129,108.822837 L511.496304,108.822837 C511.482669,108.791362 511.467953,108.760533 511.454534,108.729057 L514.174756,108.729057 C515.73863,111.633004 518.466643,113.82487 521.733766,114.680963 L521.733766,117.192328 C517.347736,116.249138 513.694514,113.324494 511.768348,109.40837 L511.768348,125 L509.314543,125 L509.314543,112.326545 C507.262419,114.911425 504.345252,116.785301 501,117.504712 L501,114.993132 C505.938126,113.699183 509.644588,109.353395 509.959051,104.111199 L501.557073,104.111199 L501.557073,101.666667 L520.798818,101.666667 Z M585.727212,101.666667 L585.727212,103.710391 L587.948052,103.710391 L587.948052,106.13392 L585.727212,106.13392 L585.727212,111.503985 L587.948052,110.056365 L587.948052,112.943483 L585.727212,114.391103 L585.727212,125 L581.304005,125 L581.304005,122.576471 L583.319727,122.576471 L583.319727,115.960337 L579.253247,118.610852 L579.253247,115.723734 L583.319727,113.073219 L583.319727,106.13392 L579.704464,106.13392 L579.704464,103.710391 L583.319727,103.710391 L583.319727,101.666667 L585.727212,101.666667 Z M596.437299,101 L596.437299,103.516051 L601.807245,103.516051 L601.807245,105.951556 L596.437299,105.951556 L596.437299,108.369877 L601.881298,108.369877 L601.844056,109.623822 C601.736421,113.236162 599.530749,116.760437 596.837919,119.769647 C597.362105,120.26796 597.911262,120.75897 598.488405,121.238596 C600.258797,122.710123 602.133597,123.973733 604,124.979165 L599.377691,124.979165 C598.54416,124.397514 597.723976,123.773119 596.925965,123.109847 C596.305553,122.594136 595.716785,122.067256 595.15385,121.533718 C593.832729,122.835345 592.476519,124.005522 591.249687,125 L587.279221,125 C588.868355,123.805552 591.230743,121.977474 593.449977,119.801436 C591.193717,117.321684 589.562605,114.721006 588.667076,112.180683 L591.290589,112.180683 C592.109697,114.111861 593.423498,116.105542 595.144594,118.028343 C597.136285,115.789801 598.777299,113.29974 599.261875,110.805382 L588.58721,110.805382 L588.58721,108.369877 L593.996551,108.369877 L593.996551,105.951556 L588.62639,105.951556 L588.62639,103.516051 L593.996551,103.516051 L593.996551,101 L596.437299,101 Z M428.452199,113.353521 C431.282996,113.353521 433.57781,115.648625 433.57781,118.479779 C433.57781,121.310932 431.282996,123.606036 428.452199,123.606036 C425.621402,123.606036 423.326588,121.310932 423.326588,118.479779 C423.326588,115.648625 425.621402,113.353521 428.452199,113.353521 Z M537.926651,115 C539.223309,117.347769 541.294333,119.232427 543.805195,120.334712 L543.805195,123 C539.894157,121.618063 536.73687,118.699891 535.11039,115 L537.926651,115 Z M563.201299,108.333333 C564.542802,109.453309 566.138333,110.253881 567.883117,110.620595 L567.883117,113 C566.194278,112.707455 564.611399,112.082492 563.201299,111.187504 L563.201299,108.333333 Z M563.201299,102.333333 C564.542802,103.453309 566.138333,104.253881 567.883117,104.620595 L567.883117,107 C566.194278,106.707455 564.611399,106.082492 563.201299,105.187504 L563.201299,102.333333 Z" id="LOGO"></path>
        </g>
    </g>
</svg>